#!OML:ASF E:\motion texture\Top Level 1\Subject 1\Session 1\male.ASF
:FULLY-SPECIFIED
:DEGREES
354
root -26.0856 17.7403 4.48885 487.264 -83.1721 -481.452
lowerback 0.783432 0.764589 5.95938
upperback -1.58639 1.11233 2.44299
thorax -2.00935 0.456076 -0.849012
lowerneck -11.6778 -5.87534 -6.02639
upperneck 12.6083 -8.29438 8.51092
head 6.36044 -3.71017 2.9221
rclavicle -1.10201e-014 -2.10712e-014
rhumerus -18.3466 24.5151 -89.2019
rradius 72.8696
rwrist 4.69883
rhand -12.3988 -16.7451
rfingers 7.12502
rthumb 13.6727 -46.276
lclavicle -1.10201e-014 -2.10712e-014
lhumerus -32.4963 18.2455 79.326
lradius 27.7798
lwrist -24.311
lhand -16.4639 20.5462
lfingers 7.12502
lthumb 9.75261 50.3004
rfemur -6.29844 1.22922 27.5928
rtibia 48.8914
rfoot 4.59484 -4.99645
rtoes -3.35437
lfemur -26.3006 -0.875549 -12.187
ltibia 22.9092
lfoot -0.464856 1.2058
ltoes -0.736538
355
root -26.2369 17.7559 4.50379 488.175 -83.6285 -482.471
lowerback 0.859084 0.676892 5.54586
upperback -1.54561 0.996102 2.3273
thorax -2.02032 0.406811 -0.736498
lowerneck -11.9203 -5.72941 -5.89765
upperneck 12.7015 -8.08578 8.35476
head 6.4036 -3.606 2.86712
rclavicle 5.96354e-015 1.59028e-014
rhumerus -18.281 22.8411 -89.0724
rradius 71.4422
rwrist 4.96659
rhand -13.6104 -17.7497
rfingers 7.12502
rthumb 12.5048 -47.3555
lclavicle 5.96354e-015 1.59028e-014
lhumerus -32.7012 18.4236 79.6214
lradius 27.2667
lwrist -24.7454
lhand -16.4414 20.4547
lfingers 7.12502
lthumb 9.77431 50.2078
rfemur -7.44814 0.408452 26.7536
rtibia 50.9925
rfoot 7.53054 -5.32393
rtoes -0.0492737
lfemur -25.5982 -0.961862 -12.9237
ltibia 22.8422
lfoot -0.798028 0.95844
ltoes -0.064428
356
root -26.387 17.7717 4.51855 489.668 -84.1067 -484.079
lowerback 0.936461 0.581904 5.0879
upperback -1.50091 0.868578 2.20327
thorax -2.02814 0.352612 -0.606976
lowerneck -12.1456 -5.57466 -5.77002
upperneck 12.7746 -7.86412 8.19685
head 6.43705 -3.49671 2.81383
rclavicle 1.31695e-015 1.74931e-014
rhumerus -18.1946 21.1748 -88.9456
rradius 69.9103
rwrist 5.20648
rhand -14.8694 -18.7832
rfingers 7.12502
rthumb 11.2907 -48.4593
lclavicle 1.31695e-015 1.74931e-014
lhumerus -32.8959 18.53 79.9371
lradius 26.7344
lwrist -25.2567
lhand -16.4058 20.3671
lfingers 7.12502
lthumb 9.80864 50.1186
rfemur -8.60641 -0.379312 25.8794
rtibia 53.0281
rfoot 10.3419 -5.91365
rtoes 3.43351
lfemur -24.8536 -1.07009 -13.703
ltibia 22.7183
lfoot -1.17086 0.773815
ltoes 0.357555
357
root -26.5357 17.7877 4.53278 491.588 -84.5735 -486.12
lowerback 1.01731 0.482211 4.62529
upperback -1.45044 0.733627 2.08297
thorax -2.0311 0.294656 -0.470236
lowerneck -12.3455 -5.41951 -5.65805
upperneck 12.8257 -7.63949 8.04345
head 6.46042 -3.3876 2.76562
rclavicle 6.69656e-015 -8.74653e-015
rhumerus -18.0748 19.5312 -88.8064
rradius 68.2757
rwrist 5.4042
rhand -16.1423 -19.8458
rfingers 7.12502
rthumb 10.0629 -49.5852
lclavicle 6.69656e-015 -8.74653e-015
lhumerus -33.0633 18.5563 80.2842
lradius 26.176
lwrist -25.8532
lhand -16.3351 20.2802
lfingers 7.12502
lthumb 9.87685 50.0286
rfemur -9.76424 -1.13652 25.0235
rtibia 54.973
rfoot 12.8803 -6.75645
rtoes 6.70891
lfemur -24.0761 -1.1933 -14.4735
ltibia 22.5494
lfoot -1.5716 0.638743
ltoes 0.551966
358
root -26.6833 17.8038 4.54622 493.776 -84.9983 -488.427
lowerback 1.09395 0.380443 4.19007
upperback -1.39972 0.594943 1.97919
thorax -2.03015 0.234069 -0.33105
lowerneck -12.5354 -5.26866 -5.54348
upperneck 12.8817 -7.41741 7.86055
head 6.48308 -3.2822 2.70762
rclavicle 3.16813e-015 -3.37934e-014
rhumerus -17.9405 17.9458 -88.6508
rradius 66.547
rwrist 5.52304
rhand -17.4046 -20.9561
rfingers 7.12502
rthumb 8.84495 -50.7507
lclavicle 3.16813e-015 -3.37934e-014
lhumerus -33.2104 18.496 80.667
lradius 25.5972
lwrist -26.5397
lhand -16.2166 20.1833
lfingers 7.12502
lthumb 9.99123 49.9262
rfemur -10.9222 -1.87051 24.2312
rtibia 56.8279
rfoot 14.9753 -7.81106
rtoes 9.13222
lfemur -23.2758 -1.31907 -15.1918
ltibia 22.3368
lfoot -1.98148 0.540279
ltoes 0.61882
359
root -26.8292 17.82 4.55845 496.069 -85.3442 -490.827
lowerback 1.16282 0.286192 3.81142
upperback -1.35066 0.465874 1.90414
thorax -2.02471 0.177026 -0.193663
lowerneck -12.7212 -5.12934 -5.42998
upperneck 12.949 -7.20665 7.64505
head 6.50885 -3.18495 2.63831
rclavicle 1.14425e-014 -1.59028e-015
rhumerus -17.7859 16.4372 -88.4611
rradius 64.7341
rwrist 5.53833
rhand -18.6045 -22.1648
rfingers 7.12502
rthumb 7.68687 -52.0051
lclavicle 1.14425e-014 -1.59028e-015
lhumerus -33.3263 18.3493 81.0931
lradius 25.0038
lwrist -27.3465
lhand -16.043 20.0762
lfingers 7.12502
lthumb 10.1586 49.811
rfemur -12.0915 -2.57306 23.548
rtibia 58.603
rfoot 16.459 -9.03528
rtoes 10.7393
lfemur -22.4672 -1.42263 -15.8135
ltibia 22.0866
lfoot -2.38415 0.473435
ltoes 0.683486
360
root -26.9739 17.8364 4.56956 498.024 -85.605 -492.879
lowerback 1.23308 0.198624 3.51538
upperback -1.30772 0.346741 1.864
thorax -2.02474 0.123164 -0.0664726
lowerneck -12.9005 -5.00078 -5.31435
upperneck 13.0266 -7.00663 7.39641
head 6.53693 -3.09564 2.55709
rclavicle -1.88845e-015 1.63003e-014
rhumerus -17.6242 15.0477 -88.231
rradius 62.84
rwrist 5.42007
rhand -19.7361 -23.4933
rfingers 7.12502
rthumb 6.59462 -53.3706
lclavicle -1.88845e-015 1.63003e-014
lhumerus -33.4204 18.092 81.5717
lradius 24.4163
lwrist -28.2588
lhand -15.7896 19.9745
lfingers 7.12502
lthumb 10.4032 49.6971
rfemur -13.263 -3.26273 23.0011
rtibia 60.298
rfoot 17.2693 -10.3923
rtoes 11.9434
lfemur -21.6505 -1.51321 -16.3124
ltibia 21.8025
lfoot -2.77374 0.425737
ltoes 0.673591
361
root -27.1175 17.8533 4.5797 499.299 -85.7864 -494.247
lowerback 1.30327 0.116571 3.30901
upperback -1.26589 0.236144 1.86216
thorax -2.02466 0.0719243 0.0499784
lowerneck -13.0861 -4.87879 -5.18843
upperneck 13.111 -6.81202 7.11334
head 6.56771 -3.0112 2.46252
rclavicle 3.8763e-015 -8.74653e-015
rhumerus -17.4679 13.8077 -87.9554
rradius 60.8903
rwrist 5.15284
rhand -20.8188 -24.9455
rfingers 7.12502
rthumb 5.54934 -54.8528
lclavicle 3.8763e-015 -8.74653e-015
lhumerus -33.4878 17.7294 82.1025
lradius 23.851
lwrist -29.2962
lhand -15.5123 19.8325
lfingers 7.12502
lthumb 10.6706 49.5415
rfemur -14.4262 -3.94589 22.5985
rtibia 61.8957
rfoot 17.4005 -11.8062
rtoes 12.9279
lfemur -20.8221 -1.60328 -16.6807
ltibia 21.4863
lfoot -3.15051 0.4014
ltoes 0.668847
362
root -27.2604 17.8708 4.58902 499.966 -85.8957 -494.998
lowerback 1.36506 0.0444677 3.17703
upperback -1.22241 0.13945 1.89441
thorax -2.01716 0.0264059 0.159646
lowerneck -13.2735 -4.75883 -5.06219
upperneck 13.1876 -6.61748 6.81753
head 6.59672 -2.9282 2.36386
rclavicle 1.00138e-014 1.27222e-014
rhumerus -17.3361 12.7507 -87.6301
rradius 58.9239
rwrist 4.78039
rhand -21.8482 -26.4374
rfingers 7.12502
rthumb 4.55537 -56.3685
lclavicle 1.00138e-014 1.27222e-014
lhumerus -33.5252 17.2674 82.6861
lradius 23.3302
lwrist -30.4516
lhand -15.1244 19.6896
lfingers 7.12502
lthumb 11.0448 49.379
rfemur -15.5847 -4.60988 22.3209
rtibia 63.3714
rfoot 16.9793 -13.2216
rtoes 13.998
lfemur -19.9851 -1.69399 -16.9364
ltibia 21.1394
lfoot -3.51435 0.400311
ltoes 0.634519
363
root -27.4031 17.8893 4.5982 499.64 -85.991 -494.767
lowerback 1.43872 -0.0358504 3.10851
upperback -1.17541 0.0333435 1.95018
thorax -2.01244 -0.0248966 0.258433
lowerneck -13.4514 -4.64036 -4.94105
upperneck 13.2477 -6.4241 6.52584
head 6.62008 -2.84651 2.26751
rclavicle 2.28602e-015 -8.34896e-015
rhumerus -17.2471 11.9062 -87.2572
rradius 56.9513
rwrist 4.39095
rhand -22.7996 -27.8654
rfingers 7.12502
rthumb 3.63666 -57.8141
lclavicle 2.28602e-015 -8.34896e-015
lhumerus -33.5464 16.7126 83.3116
lradius 22.8748
lwrist -31.7069
lhand -14.6363 19.5136
lfingers 7.12502
lthumb 11.5155 49.1773
rfemur -16.6944 -5.28884 22.1338
rtibia 64.6709
rfoot 16.1805 -14.5766
rtoes 15.2376
lfemur -19.1274 -1.83732 -17.1168
ltibia 20.7704
lfoot -3.87052 0.417217
ltoes 0.622921
364
root -27.5451 17.9082 4.60692 499.07 -86.0583 -494.281
lowerback 1.50683 -0.108163 3.06481
upperback -1.13534 -0.0618066 2.01981
thorax -2.01112 -0.0713001 0.357409
lowerneck -13.5992 -4.52 -4.83432
upperneck 13.2836 -6.22981 6.26032
head 6.6327 -2.76434 2.18266
rclavicle 4.12478e-015 -9.54166e-015
rhumerus -17.2238 11.3157 -86.8422
rradius 54.9987
rwrist 4.0895
rhand -23.6126 -29.2022
rfingers 7.12502
rthumb 2.85153 -59.1629
lclavicle 4.12478e-015 -9.54166e-015
lhumerus -33.5719 16.0736 83.9657
lradius 22.5086
lwrist -33.0153
lhand -14.0631 19.2827
lfingers 7.12502
lthumb 12.0682 48.9147
rfemur -17.8032 -5.93272 22.001
rtibia 65.8055
rfoot 15.1944 -15.8463
rtoes 16.4609
lfemur -18.2712 -1.99757 -17.2537
ltibia 20.3789
lfoot -4.21602 0.459987
ltoes 0.601459
365
root -27.6862 17.927 4.61509 498.614 -86.1073 -493.893
lowerback 1.56459 -0.169621 3.01867
upperback -1.10287 -0.142917 2.09554
thorax -2.0112 -0.110804 0.463703
lowerneck -13.7182 -4.39961 -4.74325
upperneck 13.2997 -6.03797 6.02543
head 6.63641 -2.68281 2.11052
rclavicle -9.6659e-015 -2.5842e-014
rhumerus -17.2673 10.9973 -86.3891
rradius 53.0643
rwrist 4.02744
rhand -24.2436 -30.2981
rfingers 7.12502
rthumb 2.24212 -60.2661
lclavicle -9.6659e-015 -2.5842e-014
lhumerus -33.6144 15.3625 84.6384
lradius 22.2554
lwrist -34.3155
lhand -13.4342 18.9698
lfingers 7.12502
lthumb 12.6746 48.5652
rfemur -18.909 -6.51524 21.8917
rtibia 66.7453
rfoot 14.1521 -17.0161
rtoes 17.5117
lfemur -17.4246 -2.16548 -17.3757
ltibia 19.9691
lfoot -4.54666 0.532967
ltoes 0.608587
366
root -27.8264 17.9457 4.62273 498.412 -86.1584 -493.744
lowerback 1.61818 -0.22169 2.95393
upperback -1.0815 -0.211841 2.16895
thorax -2.01978 -0.144146 0.57775
lowerneck -13.8242 -4.28593 -4.65563
upperneck 13.3171 -5.858 5.80392
head 6.6402 -2.60664 2.04223
rclavicle -1.02623e-014 5.1684e-015
rhumerus -17.3923 10.9457 -85.9066
rradius 51.1611
rwrist 4.33731
rhand -24.5093 -31.2649
rfingers 7.12502
rthumb 1.98551 -61.2354
lclavicle -1.02623e-014 5.1684e-015
lhumerus -33.6849 14.5711 85.3272
lradius 22.1256
lwrist -35.5255
lhand -12.7999 18.5567
lfingers 7.12502
lthumb 13.2861 48.1132
rfemur -20.0098 -7.04696 21.7776
rtibia 67.4965
rfoot 13.0921 -18.048
rtoes 18.1715
lfemur -16.5909 -2.33678 -17.51
ltibia 19.5462
lfoot -4.86352 0.624138
ltoes 0.61644
367
root -27.966 17.9637 4.62988 498.729 -86.2151 -494.1
lowerback 1.66074 -0.261494 2.85979
upperback -1.06896 -0.26535 2.23223
thorax -2.03066 -0.169437 0.697378
lowerneck -13.9245 -4.18292 -4.56981
upperneck 13.34 -5.69639 5.60076
head 6.64698 -2.53825 1.97827
rclavicle -4.22417e-016 -1.35174e-014
rhumerus -17.597 11.1654 -85.4045
rradius 49.299
rwrist 5.0593
rhand -24.398 -31.9406
rfingers 7.12502
rthumb 2.09301 -61.9101
lclavicle -4.22417e-016 -1.35174e-014
lhumerus -33.7844 13.708 86.0204
lradius 22.1229
lwrist -36.5977
lhand -12.182 18.0586
lfingers 7.12502
lthumb 13.8816 47.5753
rfemur -21.1064 -7.51952 21.6379
rtibia 68.0681
rfoot 12.0537 -18.9037
rtoes 18.5095
lfemur -15.77 -2.49462 -17.6772
ltibia 19.111
lfoot -5.16828 0.73532
ltoes 0.708921
